HIERARCHY
ROOT pelvis
{
  OFFSET 0 100 0
  CHANNELS 6 Xposition Yposition Zposition Zrotation Xrotation Yrotation
  JOINT pelvis_right_femur
  {
    OFFSET -10.78128 -3.44521 -0.5502486
    CHANNELS 3 Zrotation Xrotation Yrotation
    JOINT right_femur_tibia
    {
      OFFSET -0.8047443 -44.0398 -0.1307829
      CHANNELS 3 Zrotation Xrotation Yrotation
      JOINT right_tibia_foot
      {
        OFFSET 3.006224 -47.83518 -5
        CHANNELS 3 Zrotation Xrotation Yrotation
        End Site
        {
          OFFSET 0 -5 15
        }
      }
    }
  }
  JOINT pelvis_left_femur
  {
    OFFSET 10.78128 -3.44521 -0.5502486
    CHANNELS 3 Zrotation Xrotation Yrotation
    JOINT left_femur_tibia
    {
      OFFSET 0.8047443 -44.0398 -0.1307829
      CHANNELS 3 Zrotation Xrotation Yrotation
      JOINT left_tibia_foot
      {
        OFFSET -4.370144 -48.10324 -4.275266
        CHANNELS 3 Zrotation Xrotation Yrotation
        End Site
        {
          OFFSET 0 -5 15
        }
      }
    }
  }
  JOINT pelvis_spine1
  {
    OFFSET 0 6.468898 -3.129235
    CHANNELS 3 Zrotation Xrotation Yrotation
    JOINT spine1
    {
      OFFSET 0 23.15396 4.99043
      CHANNELS 3 Zrotation Xrotation Yrotation
      JOINT spine2
      {
        OFFSET 0 20.79997 -5.064912
        CHANNELS 3 Zrotation Xrotation Yrotation
        JOINT neck
        {
          OFFSET 0 14.38658 9.616178
          CHANNELS 3 Zrotation Xrotation Yrotation
          End Site
          {
            OFFSET 0 20 0
          }
        }
      }
      JOINT right_manubrium
      {
        OFFSET -5.722621 16.35077 3.967754
        CHANNELS 3 Zrotation Xrotation Yrotation
        JOINT right_clavicle
        {
          OFFSET -13.16364 1.694482 -4.693211
          CHANNELS 3 Zrotation Xrotation Yrotation
          JOINT right_humerus
          {
            OFFSET -28.5034 -0.3100689 -2.792744
            CHANNELS 3 Zrotation Xrotation Yrotation
            JOINT right_radius
            {
              OFFSET -25.15693 0.02248979 -1.271978
              CHANNELS 3 Zrotation Xrotation Yrotation
              End Site
              {
                OFFSET -15 0 0
              }
            }
          }
        }
      }
      JOINT left_manubrium
      {
        OFFSET 5.722621 16.35077 3.967754
        CHANNELS 3 Zrotation Xrotation Yrotation
        JOINT left_clavicle
        {
          OFFSET 13.16364 1.694482 -4.693211
          CHANNELS 3 Zrotation Xrotation Yrotation
          JOINT left_humerus
          {
            OFFSET 29.39168 -1.063119 -2.237045
            CHANNELS 3 Zrotation Xrotation Yrotation
            JOINT left_radius
            {
              OFFSET 24.59957 -0.9528479 0.9047498
              CHANNELS 3 Zrotation Xrotation Yrotation
              End Site
              {
                OFFSET 15 -0 -0
              }
            }
          }
        }
      }
    }
  }
}
MOTION
Frames: 13
Frame Time: 0.0416666666667
0 103.5113 0 2.804003 -0.2437183 0.1141846 2.17334 -15.42667 10.905 -0 38.95005 -0 -4.177412 -17.42332 -3.393341 -9.200048 8.621176 -22.96114 -0 5.118421 -0 21.24496 -7.267049 29.63063 -2.876871 -2.841062 4.482248 2.92284 10.30405 -7.776186 1.710819 21.15305 6.766108 2.905706 -25.57987 10.17074 5.898007 -19.18531 11.58449 86.58208 37.28046 -19.18891 -0 0 14.26147 -6.246982 8.678994 4.293767 6.49774 -20.52286 -0.9908518 -91.00088 21.70104 18.67399 0 0 -18.0311 14.88572 14.06086 -3.233866
0.3947062 103.6017 1.547256 2.350166 0.585702 0.1535034 3.246881 -18.14785 11.27874 -0 38.2725 -0 -4.173657 -16.90171 -2.960648 -9.127393 9.039676 -23.09774 -0 5.147539 -0 22.09813 -7.878427 30.33797 -2.89154 -2.724169 4.3877 3.058707 10.25737 -7.791315 1.724751 21.12862 6.808676 2.845875 -25.7569 10.29228 5.869974 -19.15987 11.62858 86.65544 37.59622 -19.19265 -0 0 13.90709 -5.855306 8.550026 4.381257 6.359123 -20.45005 -1.15932 -90.53283 21.68395 18.22979 0 0 -19.18579 15.1801 13.64562 -3.402168
0.7580707 102.7789 4.448906 1.051873 -0.2304936 0.2624303 3.210733 -25.49157 2.559635 -0 22.50669 -0 -6.12828 -7.798026 -0.4531312 -7.463636 12.32068 -18.02459 -0 4.506892 -0 10.51444 -18.76928 22.96225 -2.677556 -2.38266 4.241919 2.44617 10.58264 -7.552238 1.494171 21.2225 7.018495 3.24285 -24.68831 9.796342 5.771504 -18.59354 11.65472 87.21317 37.55503 -19.29892 -0 0 13.26235 -8.727865 9.498828 5.408912 6.528931 -20.61208 -1.474339 -89.98729 21.00103 17.64387 0 0 -17.91618 13.96757 12.90837 -2.648512
1.091186 101.8322 7.861528 0.8693876 -0.1497498 0.3950917 3.133013 -27.87237 0.8985176 -0 18.90411 -0 -6.535473 -5.061086 0.05657987 -7.286951 12.95465 -16.46233 -0 5.333302 -0 9.667913 -19.64012 21.44971 -2.639325 -2.301361 4.185864 2.526293 10.563 -7.573285 1.494947 21.20307 7.027342 3.201312 -24.78762 9.841091 5.750613 -18.52458 11.66723 87.31717 37.64959 -19.42229 -0 0 12.97595 -8.57759 9.48434 5.45348 6.44527 -20.59109 -1.595696 -89.77065 21.07627 17.45417 0 0 -18.50856 13.97783 12.67017 -2.531399
1.393328 101.1747 11.53889 0.02124787 1.944705 0.6316007 5.352048 -32.57122 3.018147 -0 18.68271 -0 -6.60689 -4.221779 0.4173385 -7.124486 13.41602 -16.67656 -0 7.03358 -0 11.58236 -19.71102 22.44837 -2.734004 -2.379345 4.189982 2.614576 10.52239 -7.621294 1.524495 21.17497 7.048357 3.172946 -24.9682 9.955738 5.768846 -18.68031 11.68691 87.24201 37.76712 -19.36232 -0 0 13.14157 -8.105117 9.297374 5.307032 6.463446 -20.58755 -1.521127 -89.72478 21.02149 17.37329 0 0 -18.88463 14.38409 12.72576 -2.969187
1.676206 100.3294 15.78049 -0.20006 2.184781 1.021348 5.42497 -34.74687 1.504997 -0 15.50464 -0 -7.240908 -1.461204 1.140726 -6.950934 14.28781 -15.33233 -0 8.952685 -0 10.80804 -20.13135 20.9061 -2.732829 -2.283122 4.109885 2.54638 10.57415 -7.596479 1.479182 21.17044 7.140564 3.24733 -24.83109 9.925395 5.737666 -18.59428 11.7227 87.40798 37.91847 -19.39878 -0 0 12.89656 -8.520206 9.415113 5.554408 6.478187 -20.61887 -1.640582 -89.3439 20.78781 16.95922 0 0 -19.24012 14.36937 12.37125 -3.051886
1.924368 99.37916 20.82339 -0.1588064 1.774207 1.579537 4.683245 -35.46964 -1.157836 -0 11.53586 -0 -7.836175 1.835862 1.584275 -6.757508 15.52604 -13.15115 -0 12.01803 -0 8.394958 -20.48209 18.00874 -2.758435 -2.199424 4.031535 2.374251 10.66793 -7.537448 1.416771 21.18661 7.261175 3.391077 -24.52565 9.836177 5.71239 -18.50617 11.76093 87.56363 38.04324 -19.34854 -0 0 12.75564 -9.27205 9.604142 5.882032 6.568084 -20.67676 -1.72813 -88.96764 20.3938 16.49789 0 0 -19.25006 14.31294 12.06573 -3.241208
2.127599 98.5908 26.68648 -0.2365233 1.25302 2.288519 4.460366 -34.82264 -3.126205 -0 9.318335 -0 -8.612017 4.366365 1.732707 -6.431634 16.60756 -11.08022 -0 16.95002 -0 5.690142 -19.8254 15.04018 -2.827998 -2.133457 3.939666 2.211456 10.75188 -7.48606 1.359916 21.19776 7.407156 3.545883 -24.2446 9.78043 5.690121 -18.46807 11.8093 87.70605 38.22229 -19.26262 -0 0 12.66005 -9.93338 9.730142 6.193008 6.684365 -20.74344 -1.805523 -88.51912 19.9263 15.92665 0 0 -19.4464 14.41499 11.75439 -3.640141
2.298589 98.34135 33.19156 -0.7878812 1.059812 3.015168 5.407606 -32.55886 -3.158306 -0 10.03062 -0 -9.393508 5.021183 1.252665 -5.720094 16.74522 -9.540069 -0 24.10156 -0 2.526506 -17.7719 12.23286 -2.938956 -2.091148 3.851869 1.968732 10.85062 -7.399411 1.302352 21.23703 7.566787 3.758163 -23.83859 9.683467 5.67866 -18.45864 11.8551 87.78018 38.36872 -19.03756 -0 0 12.72294 -10.77502 9.849347 6.523428 6.868146 -20.81877 -1.842785 -88.12254 19.32245 15.34475 0 0 -19.32646 14.55277 11.5773 -4.216414
2.5095 98.90005 39.91515 -1.965962 1.574652 3.456459 7.365918 -29.0188 -0.7796858 -0 13.33242 -0 -9.738321 3.433688 0.2180095 -4.560871 14.73454 -8.842525 -0 32.52127 -0 -0.2367375 -13.93155 10.18205 -3.018758 -2.024914 3.782122 1.627391 10.95729 -7.240578 1.247468 21.3308 7.690559 4.010705 -23.23937 9.489532 5.669632 -18.38763 11.87758 87.7669 38.39157 -18.66089 -0 0 12.86473 -11.9138 10.0214 6.900118 7.062582 -20.8601 -1.878317 -87.90427 18.68966 14.93012 0 0 -18.57828 14.50369 11.58951 -4.660954
2.826698 100.1067 46.55004 -3.17059 2.470396 3.36907 9.113332 -25.62784 2.523781 -0 15.9149 -0 -9.320478 1.316619 -0.7298089 -3.404184 10.97654 -8.688531 -0 40.85796 -0 -1.639792 -9.108897 9.245364 -3.055331 -1.964726 3.78287 1.213576 11.03811 -6.998466 1.20687 21.48346 7.741263 4.27342 -22.49872 9.201903 5.660537 -18.30276 11.86785 87.56517 38.257 -18.04417 -0 0 13.20832 -13.19877 10.19106 7.256657 7.226337 -20.82836 -1.863106 -88.04356 18.09784 14.93628 0 0 -16.96309 14.2697 11.9069 -4.919829
3.156184 101.555 53.14961 -3.279587 1.890281 2.715751 9.464401 -21.96742 4.335433 -0 15.84914 -0 -8.682891 0.001948124 -1.616137 -2.891396 7.640552 -8.055501 -0 49.91568 -0 -1.872546 -5.19292 9.581682 -3.088944 -1.962699 3.86755 0.8078837 11.06217 -6.728885 1.167681 21.64492 7.758992 4.534451 -21.79883 8.887237 5.631797 -18.32843 11.84647 87.1972 38.03408 -17.24533 -0 0 13.82299 -14.36213 10.24477 7.5335 7.362532 -20.76791 -1.77386 -88.47207 17.50487 15.34177 0 0 -14.89461 14.05588 12.43252 -5.18979
3.373772 103.2024 59.57719 -2.366783 -0.6235185 1.716174 8.673331 -16.16869 4.614133 -0 15.1789 -0 -8.474034 -1.614095 -2.692025 -2.977765 3.884334 -6.905203 -0 59.32372 -0 -1.585957 -3.218806 11.27526 -3.146474 -2.059534 4.055039 0.4023002 11.02287 -6.455404 1.088178 21.7821 7.799952 4.860052 -21.1564 8.509083 5.544866 -18.57247 11.83043 86.69311 37.6771 -16.27098 -0 0 14.85347 -15.48855 10.10847 7.739017 7.517155 -20.76453 -1.608741 -89.18498 16.70192 16.18821 0 0 -12.35873 13.94345 13.13827 -5.650955
